<?xml version="1.0" standalone="no"?>
<!DOCTYPE svg PUBLIC "-//W3C//DTD SVG 20010904//EN"
 "http://www.w3.org/TR/2001/REC-SVG-20010904/DTD/svg10.dtd">
<svg version="1.0" xmlns="http://www.w3.org/2000/svg"
 width="2237.000000pt" height="1196.000000pt" viewBox="0 0 2237.000000 1196.000000"
 preserveAspectRatio="xMidYMid meet">
<metadata>
Created by potrace 1.16, written by Peter Selinger 2001-2019
</metadata>
<g transform="translate(0.000000,1196.000000) scale(0.100000,-0.100000)"
fill="#000000" stroke="none">
<path d="M15039 11433 c-47 -64 -52 -73 -87 -178 -32 -95 -127 -357 -186 -512
-19 -50 -55 -135 -80 -187 -45 -92 -48 -96 -79 -96 -53 0 -206 49 -290 92 -48
25 -101 63 -136 99 l-58 57 -114 1 c-113 1 -193 8 -339 33 -43 8 -113 11 -165
8 l-90 -5 -42 -62 c-23 -34 -51 -88 -63 -120 -21 -54 -22 -70 -17 -211 l6
-152 -60 -40 c-33 -22 -63 -40 -65 -40 -3 0 -25 -13 -49 -30 -24 -16 -46 -30
-50 -30 -3 0 -18 -9 -33 -19 -15 -11 -128 -86 -252 -168 -124 -82 -297 -201
-385 -263 -141 -100 -177 -121 -303 -172 -79 -32 -188 -81 -243 -109 -100 -51
-201 -130 -186 -145 4 -5 16 -3 25 4 163 115 612 234 1557 411 248 47 292 52
542 66 256 14 278 16 368 45 52 17 109 30 127 28 l33 -3 11 -115 c13 -134 28
-173 83 -223 l40 -36 -19 -48 c-22 -58 -46 -176 -60 -298 -8 -61 -34 -160 -82
-310 -182 -565 -219 -685 -232 -746 -21 -99 -142 -326 -186 -349 -29 -16 -282
-13 -427 5 -188 22 -345 42 -443 56 l-85 13 -195 196 c-107 108 -224 217 -260
242 -136 94 -283 163 -465 218 l-120 36 -78 105 c-225 299 -346 441 -513 604
-56 55 -116 122 -135 149 -90 136 -255 273 -424 352 -115 54 -133 54 -356 15
-174 -31 -181 -31 -564 -16 -204 8 -223 11 -394 80 -173 69 -257 96 -376 121
-68 14 -109 15 -280 8 -269 -12 -285 -10 -358 24 -81 38 -159 98 -282 217 -74
71 -117 104 -165 127 -302 140 -610 264 -805 325 -82 25 -104 28 -245 28 -85
1 -218 5 -296 9 -90 5 -223 4 -372 -4 -214 -12 -236 -11 -299 5 -85 23 -136
48 -160 79 -14 17 -24 22 -34 16 -35 -22 83 -163 217 -259 148 -105 271 -169
360 -187 44 -9 97 -20 119 -24 22 -5 80 -23 128 -40 67 -23 124 -35 230 -45
281 -29 422 -61 462 -105 10 -11 52 -38 94 -61 203 -111 379 -258 421 -351 36
-80 41 -77 -138 -77 l-158 0 -130 -63 c-71 -35 -148 -70 -172 -78 -37 -12 -43
-17 -40 -39 3 -21 16 -30 100 -62 54 -21 110 -46 125 -56 15 -10 93 -84 174
-165 l147 -148 -8 -69 c-13 -115 4 -146 76 -143 l32 1 6 -62 c3 -34 10 -159
16 -277 6 -118 17 -309 25 -425 30 -417 44 -632 51 -730 4 -70 1 -140 -11
-230 -24 -181 -23 -249 3 -285 12 -16 31 -68 43 -117 12 -48 31 -106 42 -128
19 -38 20 -57 18 -354 -2 -290 -4 -317 -23 -360 -87 -199 -197 -502 -234 -644
l-17 -68 -21 20 c-47 43 -171 121 -193 121 -18 0 -25 -7 -29 -30 -11 -55 -38
-37 -127 83 -92 124 -197 274 -197 283 0 3 -17 31 -38 62 -79 118 -179 306
-242 456 l-29 69 35 33 c41 37 186 111 289 148 186 66 298 118 410 192 165
109 202 181 148 295 -55 118 -105 254 -135 366 -54 203 -41 403 41 623 21 58
51 138 67 179 l27 74 -12 281 c-7 155 -14 288 -17 296 -2 8 -24 23 -49 33 -91
38 -206 136 -267 227 -38 56 -164 178 -243 234 -33 24 -86 53 -118 66 -102 40
-291 174 -400 281 -55 55 -105 99 -113 99 -46 0 -287 -108 -459 -205 -159 -90
-251 -127 -435 -180 -125 -35 -388 -90 -396 -83 -2 3 0 76 6 163 12 185 11
189 -73 200 -110 13 -602 97 -608 103 -4 4 -29 72 -55 152 -48 143 -120 301
-139 307 -6 2 -21 -7 -35 -19 -14 -13 -50 -31 -80 -42 -30 -10 -105 -42 -166
-71 -138 -66 -201 -123 -228 -209 -6 -16 -14 -18 -60 -13 -60 6 -131 39 -224
103 -44 31 -93 53 -162 73 -242 72 -444 154 -688 277 -83 42 -202 92 -285 119
-165 55 -411 152 -512 203 -38 19 -117 65 -175 102 -137 87 -271 170 -276 170
-2 0 -27 15 -56 34 -59 37 -161 90 -196 100 -44 14 -35 -22 38 -146 148 -251
197 -308 351 -403 195 -121 598 -295 683 -295 30 0 174 -75 261 -135 147 -102
314 -247 547 -474 93 -91 105 -106 95 -122 -10 -16 -3 -28 54 -86 168 -173
275 -300 359 -425 l58 -86 7 -99 c4 -54 18 -154 31 -223 14 -69 27 -152 30
-185 6 -71 34 -172 76 -275 33 -83 135 -290 149 -305 16 -16 10 -35 -47 -159
-53 -117 -58 -123 -122 -171 -226 -169 -471 -365 -529 -423 -48 -47 -96 -114
-163 -222 -208 -338 -354 -491 -502 -522 -53 -11 -58 -14 -58 -38 0 -24 5 -27
113 -53 61 -15 200 -50 307 -78 191 -49 197 -50 265 -39 88 13 319 92 490 164
71 31 133 56 136 56 23 0 166 -280 199 -389 20 -65 22 -87 16 -184 -7 -118 -3
-104 -170 -541 -30 -79 -46 -136 -47 -170 -1 -31 15 -117 41 -220 39 -159 41
-174 35 -265 -10 -152 -22 -241 -44 -311 -65 -211 -79 -308 -87 -608 l-7 -253
-68 -34 c-38 -19 -124 -53 -191 -76 -188 -62 -340 -139 -409 -208 -35 -35 -59
-69 -64 -89 -3 -17 -11 -34 -16 -38 -39 -24 -93 -166 -105 -274 -3 -36 -13
-78 -21 -94 -53 -104 -264 -256 -463 -335 -271 -107 -490 -246 -681 -432 -52
-52 -136 -123 -187 -157 -77 -54 -193 -141 -277 -209 -280 -225 -494 -473
-582 -673 -37 -84 -40 -115 -17 -141 16 -18 20 -17 103 28 187 101 352 201
478 289 32 23 108 67 168 99 157 82 212 113 276 156 63 42 94 60 259 146 217
114 429 243 490 298 49 45 380 239 560 329 206 103 337 152 500 190 58 14 152
45 209 70 168 74 443 151 494 138 12 -3 115 -67 228 -142 232 -154 256 -163
341 -129 68 26 181 103 254 172 50 46 64 66 69 98 10 59 77 151 148 205 34 26
106 68 160 95 99 49 307 122 382 134 203 33 288 65 333 123 26 35 27 39 27
176 0 127 -2 146 -24 194 -29 64 -105 136 -186 176 -32 16 -106 40 -164 53
-243 57 -450 127 -566 191 l-50 27 0 215 c0 213 0 216 -28 285 -16 39 -43 115
-60 170 -30 98 -31 104 -30 283 l2 182 50 133 c48 128 50 137 62 294 l11 162
-29 53 c-39 68 -97 215 -118 297 -14 53 -14 78 -5 160 14 123 38 228 58 247
11 12 28 14 71 10 31 -3 90 -8 131 -11 171 -12 275 -30 480 -84 19 -5 81 -19
138 -32 91 -21 106 -27 127 -55 14 -18 47 -49 75 -69 28 -21 69 -65 92 -99 86
-126 268 -364 305 -397 206 -184 368 -535 402 -869 6 -57 19 -121 30 -145 25
-57 90 -126 146 -156 25 -13 45 -27 45 -30 0 -12 -77 -76 -108 -90 -19 -8 -32
-21 -32 -32 0 -18 8 -19 149 -12 l149 7 56 -109 c52 -103 195 -330 227 -363
26 -27 144 -183 197 -262 58 -86 102 -170 129 -243 27 -76 23 -193 -9 -272
-29 -68 -99 -179 -150 -235 -40 -44 -190 -170 -358 -301 -69 -54 -132 -103
-140 -110 -29 -24 -256 -185 -330 -233 -117 -78 -258 -159 -345 -200 -313
-144 -575 -283 -575 -304 0 -4 -46 -38 -102 -75 -244 -162 -511 -377 -764
-616 -40 -37 -74 -71 -77 -76 -4 -6 17 -6 51 -2 73 11 228 32 467 63 105 14
237 32 295 40 58 8 159 22 225 31 314 42 313 42 367 96 89 89 347 221 623 319
273 98 405 209 405 343 0 46 -13 67 -42 67 -15 0 -18 8 -18 43 0 38 3 44 33
56 17 8 77 36 132 62 113 53 330 133 390 145 24 4 81 34 142 75 56 38 117 77
135 88 18 10 62 37 99 59 36 22 123 68 195 103 128 64 130 64 214 64 69 -1
109 -8 210 -39 69 -21 141 -46 160 -56 19 -10 82 -30 140 -45 149 -37 325 -95
486 -160 147 -60 313 -134 327 -146 5 -3 -6 -23 -23 -43 -39 -44 -32 -45 26
-5 l44 30 148 -77 c351 -184 539 -291 642 -366 60 -45 214 -196 274 -270 23
-28 47 -48 58 -48 19 0 20 5 14 92 -9 126 -21 180 -71 338 -92 286 -131 384
-198 495 -43 71 -122 172 -179 229 -27 27 -47 49 -46 50 85 57 452 295 528
343 58 36 129 81 158 100 29 19 68 42 85 52 18 10 61 36 97 58 416 255 878
485 1135 566 95 30 210 48 293 46 l84 -2 121 105 c67 58 140 121 162 140 302
264 372 319 445 349 41 16 84 34 95 39 195 83 392 160 409 160 88 0 329 127
456 240 55 49 88 70 109 70 33 0 93 28 124 58 39 36 73 106 86 172 5 30 44
202 85 382 l76 327 -26 73 c-32 89 -143 318 -154 318 -5 0 -14 -26 -20 -57
-25 -131 -61 -269 -83 -317 -21 -45 -36 -60 -109 -109 -50 -33 -120 -93 -171
-147 -77 -82 -89 -91 -131 -96 l-45 -7 -22 -66 c-12 -36 -27 -69 -33 -73 -6
-4 -62 -8 -125 -8 l-113 0 -159 -150 c-87 -82 -160 -150 -162 -150 -2 0 46
145 106 323 60 177 116 356 123 397 25 140 27 349 9 696 l-17 330 47 73 c64
99 142 252 150 292 3 19 0 153 -8 299 -8 146 -12 268 -8 272 3 3 62 30 131 58
122 52 125 53 205 48 92 -6 151 -31 276 -116 122 -83 248 -140 345 -156 35 -6
198 6 280 20 30 6 36 1 110 -90 68 -84 85 -98 122 -108 47 -12 49 -14 26 -46
-15 -21 -15 -25 2 -43 9 -10 21 -19 26 -19 5 0 27 -12 49 -26 76 -48 147 -242
215 -589 22 -114 37 -222 38 -270 1 -73 -3 -87 -37 -159 -54 -114 -52 -155 14
-282 110 -213 226 -442 257 -510 45 -99 132 -242 219 -358 72 -96 73 -99 53
-113 -105 -73 -345 -286 -366 -324 -5 -10 -93 -48 -204 -88 -313 -115 -322
-119 -388 -162 -72 -47 -123 -109 -151 -183 -28 -76 -34 -134 -26 -260 7 -109
8 -113 34 -129 24 -14 43 -15 132 -7 57 5 134 16 171 25 82 19 271 85 428 150
111 46 119 47 241 52 197 9 258 -14 280 -102 14 -55 59 -97 144 -135 94 -42
209 -66 503 -106 149 -21 272 -42 272 -46 0 -17 -107 -113 -164 -148 -53 -33
-61 -42 -111 -140 -155 -306 -289 -487 -435 -587 -25 -16 -55 -33 -67 -37 -12
-4 -43 -32 -69 -64 -226 -268 -423 -461 -524 -512 -20 -10 -65 -24 -100 -30
-113 -20 -202 -78 -261 -170 -17 -26 -42 -54 -56 -61 -34 -18 -153 -148 -153
-166 0 -10 6 -13 18 -8 52 21 199 51 462 96 l294 50 55 42 c44 34 160 127 301
240 13 10 356 281 588 465 37 29 74 58 82 65 125 100 164 128 215 157 93 52
482 316 555 377 83 68 297 223 309 223 9 0 57 -6 106 -14 79 -13 171 -23 350
-41 194 -18 332 -17 470 4 77 12 226 36 330 52 285 45 493 78 660 105 83 13
193 30 245 38 52 8 183 29 290 46 107 17 266 41 354 55 87 13 161 27 164 30
16 15 -22 43 -99 71 -46 17 -129 50 -183 73 -149 64 -405 161 -426 161 -10 0
-60 20 -111 44 -330 155 -582 250 -719 270 -47 7 -121 48 -162 88 -13 14 -46
33 -73 43 -28 10 -99 40 -160 66 -170 74 -229 86 -416 88 l-107 1 -45 73 c-53
85 -107 195 -107 218 0 9 18 75 40 145 l39 128 -35 41 c-52 61 -148 203 -181
270 -57 113 -72 178 -81 351 l-9 161 -76 87 c-89 103 -92 113 -84 305 4 96 11
147 31 214 36 119 59 161 125 227 68 68 109 88 215 106 160 28 336 77 521 147
109 41 157 61 280 117 121 56 192 67 509 85 l269 15 141 93 c151 100 190 125
221 143 11 6 38 21 60 34 92 54 198 111 321 174 l130 67 39 172 c21 95 45 199
52 232 11 49 11 105 2 310 -11 236 -14 254 -41 330 -86 235 -79 198 -95 487
l-14 267 -86 83 c-47 46 -103 110 -126 142 -36 53 -41 69 -48 140 -14 156 -40
281 -69 338 -21 39 -63 78 -85 78 -11 0 -55 13 -97 30 -243 93 -613 160 -889
160 l-127 0 -92 -46 c-88 -44 -407 -231 -554 -324 -37 -24 -91 -49 -120 -56
-113 -27 -490 -125 -496 -129 -4 -3 -29 -50 -55 -105 -28 -58 -54 -100 -63
-100 -8 0 -12 6 -9 14 3 8 22 77 43 154 l37 141 -32 66 c-17 37 -44 84 -60
104 -37 47 -114 89 -177 98 -29 3 -54 13 -61 23 -19 27 -89 34 -121 12 -35
-24 -79 -42 -100 -42 -9 0 19 21 63 48 45 26 110 67 145 91 58 40 77 47 199
71 75 15 168 40 206 56 84 33 219 110 291 164 l53 40 218 10 c232 12 251 16
380 77 51 24 84 48 109 79 34 41 160 134 182 134 15 0 32 25 24 36 -4 6 -34
16 -67 23 -33 8 -71 21 -85 31 -20 14 -57 19 -189 24 -90 4 -189 12 -220 18
-35 6 -118 8 -221 4 -149 -6 -195 -13 -475 -71 -170 -34 -353 -66 -406 -70
-93 -6 -100 -5 -235 35 -76 23 -173 53 -214 66 -91 29 -96 29 -223 3 -288 -59
-643 -183 -957 -336 l-175 -85 -110 6 c-60 4 -164 11 -230 16 -66 5 -202 10
-302 10 l-181 0 -32 31 c-41 42 -111 147 -192 289 -121 214 -134 244 -179 435
-57 247 -115 405 -148 405 -3 0 -23 -21 -42 -47z m1016 -1954 c50 -29 93 -48
103 -45 9 3 62 6 118 7 l100 3 103 -73 c62 -44 107 -83 113 -99 78 -192 153
-282 237 -282 23 0 317 -136 344 -158 24 -21 81 -141 106 -224 30 -99 60 -270
67 -378 6 -101 3 -91 143 -470 57 -155 62 -175 77 -320 9 -85 17 -204 18 -265
1 -95 -2 -114 -19 -137 -11 -16 -31 -31 -45 -34 -14 -3 -47 -16 -75 -29 -190
-89 -261 -120 -359 -156 -95 -36 -217 -71 -223 -66 -22 23 -166 334 -225 487
-91 235 -109 306 -110 420 -1 110 6 179 24 266 10 50 9 56 -37 170 -27 66 -54
137 -61 159 -7 22 -34 99 -59 170 -70 194 -75 212 -75 286 l0 68 -180 362
c-162 326 -191 389 -175 389 2 0 43 -23 90 -51z m-760 -361 c10 -24 40 -90 67
-148 59 -126 131 -321 151 -410 9 -36 20 -164 26 -285 12 -217 12 -221 48
-312 31 -78 34 -94 23 -108 -8 -10 -22 -14 -34 -11 -12 3 -113 17 -226 31
-113 14 -216 28 -230 30 -14 3 -86 12 -162 21 -75 9 -142 20 -150 25 -20 13
-27 216 -10 304 29 153 82 329 134 445 14 30 27 80 30 111 11 105 83 212 206
308 72 55 102 55 127 -1z m4607 -8 c210 -73 343 -145 429 -230 47 -46 71 -79
83 -115 10 -27 26 -66 37 -86 10 -20 32 -104 49 -188 30 -150 83 -297 183
-511 45 -97 47 -151 7 -231 -54 -106 -116 -187 -164 -211 -28 -15 -33 -13
-136 38 -131 65 -203 94 -236 94 -13 0 -96 -40 -183 -88 -196 -109 -411 -208
-556 -257 -118 -39 -270 -75 -323 -75 -18 0 -80 -12 -138 -26 -57 -15 -107
-24 -110 -21 -3 3 -17 50 -30 104 -63 250 -140 418 -248 538 -20 22 -36 43
-36 47 0 4 -16 40 -35 80 -34 69 -36 79 -42 208 l-6 135 43 80 c23 44 85 145
138 224 79 119 102 146 131 157 100 39 229 123 406 266 l90 73 190 11 c331 19
359 18 457 -16z m-10856 -99 c70 -34 182 -72 280 -96 66 -16 81 -16 189 -2
l118 15 226 -113 c124 -62 260 -127 301 -145 41 -17 89 -38 105 -45 68 -31
309 -127 401 -160 81 -29 132 -58 284 -161 295 -200 355 -252 384 -327 55
-146 319 -318 811 -527 94 -40 172 -74 174 -76 2 -2 -12 -25 -32 -51 -55 -77
-97 -157 -105 -204 -7 -43 -8 -44 -62 -57 -30 -8 -62 -20 -71 -28 -8 -8 -22
-14 -30 -14 -37 0 -138 -34 -227 -76 -164 -77 -406 -233 -437 -281 -27 -42
-104 -112 -146 -133 -62 -32 -111 -38 -439 -55 -173 -9 -333 -20 -355 -26 -47
-12 -81 -39 -124 -99 -17 -24 -58 -68 -91 -98 -70 -63 -118 -154 -145 -272
-20 -90 -41 -127 -103 -177 -76 -62 -105 -80 -214 -134 -88 -44 -113 -63 -174
-128 -86 -92 -139 -122 -264 -152 -104 -24 -183 -55 -245 -97 -80 -54 -185
-144 -255 -219 l-72 -78 7 388 6 388 46 192 c25 106 49 208 53 227 4 19 15 66
25 105 28 117 10 203 -106 505 l-63 165 2 200 c1 110 4 227 7 260 7 97 20 611
19 725 -2 92 -9 133 -57 325 -31 121 -54 222 -51 224 6 6 23 1 298 -83 157
-48 222 -64 230 -56 16 16 -45 188 -115 326 -36 72 -55 121 -52 134 3 11 6 20
7 20 2 0 29 -13 62 -29z m-2920 -675 l280 -93 119 93 c66 52 124 94 129 94 28
0 147 -162 209 -285 44 -88 107 -277 107 -320 0 -43 -52 -145 -93 -182 -29
-26 -101 -78 -151 -108 -15 -9 -15 -24 -7 -144 13 -196 -12 -293 -91 -351 -28
-21 -47 -25 -153 -31 -122 -6 -177 -20 -242 -60 l-34 -22 -128 58 -128 57
-127 -17 c-146 -19 -307 -57 -385 -91 -30 -13 -55 -23 -56 -22 -24 27 -59 122
-66 178 -7 59 -15 78 -49 124 -22 30 -54 80 -70 112 -37 71 -40 143 -9 230 34
99 33 132 -10 348 -23 110 -41 206 -41 213 0 28 19 11 26 -22 6 -34 7 -35 55
-35 39 0 66 9 132 44 92 50 201 86 256 86 36 0 40 3 97 91 59 91 113 149 138
149 7 0 139 -42 292 -94z m7459 -1263 c-3 -10 -17 -60 -31 -111 l-24 -94 15
-271 c12 -237 13 -286 0 -381 -9 -68 -22 -121 -34 -142 -39 -65 -116 -392
-127 -538 l-7 -81 -59 -45 c-68 -52 -126 -117 -158 -179 -20 -41 -22 -55 -19
-175 l4 -132 -106 -104 c-92 -92 -158 -171 -237 -286 -32 -47 -129 -244 -143
-291 -9 -32 -32 -61 -98 -124 -47 -45 -194 -188 -326 -319 -242 -238 -286
-278 -565 -515 -84 -71 -158 -135 -164 -140 -6 -6 -69 -60 -141 -120 -71 -60
-135 -114 -141 -120 -6 -5 -77 -66 -157 -134 -93 -79 -147 -132 -147 -143 0
-16 -140 -193 -184 -233 -6 -5 -42 -47 -80 -93 -38 -45 -73 -82 -77 -82 -4 0
-20 5 -34 10 -14 6 -57 16 -95 24 -38 8 -115 34 -172 57 -57 23 -202 82 -323
132 -121 49 -241 98 -268 108 -36 15 -73 19 -162 19 -105 0 -125 3 -225 36
-215 69 -391 150 -458 210 -42 39 -42 39 -63 161 -31 191 -109 409 -163 462
-11 11 -39 35 -60 53 -36 31 -106 152 -106 186 0 7 -36 55 -79 107 -87 103
-116 143 -109 151 3 2 45 9 94 15 255 28 518 139 726 307 21 16 52 35 70 43
57 22 175 107 240 172 91 89 144 152 223 265 l70 99 80 6 c55 5 88 13 105 26
15 10 47 28 72 39 137 63 347 263 436 417 105 181 206 308 330 415 72 63 68
62 322 85 96 9 210 23 254 31 74 14 84 20 136 67 150 138 327 247 434 266 33
6 91 11 130 11 92 1 142 13 175 43 14 13 46 29 71 36 137 38 318 228 500 527
33 54 68 102 78 106 9 4 34 7 55 7 37 1 377 80 602 139 135 36 129 36 120 15z
m4335 -529 c0 -3 -17 -39 -39 -82 -112 -224 -159 -486 -161 -895 l-1 -229 29
-46 c16 -26 58 -108 95 -182 l66 -135 10 -140 c6 -77 13 -178 15 -225 l6 -85
-18 33 c-10 18 -34 50 -54 70 -34 36 -35 39 -42 139 l-6 102 -78 80 c-51 52
-105 95 -153 122 -163 92 -305 222 -400 367 -55 83 -53 75 -69 377 -14 273
-27 344 -76 425 -47 76 -93 177 -96 211 -3 21 2 24 51 30 30 4 149 12 265 19
210 11 288 21 293 37 3 9 363 15 363 7z"/>
</g>
</svg>
